<?xml version="1.0" encoding="utf-8"?>
<!-- Generator: Adobe Illustrator 13.0.2, SVG Export Plug-In . SVG Version: 6.00 Build 14948)  -->
<!DOCTYPE svg PUBLIC "-//W3C//DTD SVG 1.1//EN" "http://www.w3.org/Graphics/SVG/1.1/DTD/svg11.dtd">
<svg version="1.1" xmlns="http://www.w3.org/2000/svg" xmlns:xlink="http://www.w3.org/1999/xlink" x="0px" y="0px"
	 width="100px" height="35px" viewBox="0 0 322.845 113.195" enable-background="new 0 0 322.845 113.195"
	 xml:space="preserve">
<g id="Hintergrund">
</g>
<g id="Hilfslinien_anzeigen">
</g>
<g id="Vordergrund">
</g>
<g id="Kralle">
</g>
<g id="Texte">
	<g>
		<g>
			<polygon fill-rule="evenodd" clip-rule="evenodd" fill="#00205B" points="63.251,0 46.323,13.267 46.323,74.836 83.245,109.098 
				63.251,62.924 			"/>
			<polygon fill-rule="evenodd" clip-rule="evenodd" fill="#00205B" points="85.424,46.34 69.783,33.774 69.783,58.253 
				85.424,108.361 			"/>
			<polygon fill-rule="evenodd" clip-rule="evenodd" fill="#00205B" points="39.791,33.121 23.46,46.34 23.46,93.335 
				81.758,110.608 39.791,80.115 			"/>
			<polygon fill-rule="evenodd" clip-rule="evenodd" fill="#00205B" points="81.333,112.535 0,112.535 0,79.461 16.974,66.194 
				16.974,99.314 			"/>
		</g>
		<g>
			<g>
				<path fill-rule="evenodd" clip-rule="evenodd" fill="#00205B" d="M128.738,104.626V84.311h-4.69v18.969
					c0,3.753-1.673,5.752-5.099,5.752c-3.468,0-5.018-1.428-5.018-5.752V84.311h-4.732v20.356c0,4.528,2.325,8.362,9.75,8.362
					C125.148,113.029,128.738,109.807,128.738,104.626z"/>
				<path fill-rule="evenodd" clip-rule="evenodd" fill="#00205B" d="M155.787,112.54V84.311h-4.447l0.082,12.891
					c0,2.57,0.286,6.608,0.408,8.037l-0.123,0.123c-0.367-1.305-1.591-4.65-2.896-7.262l-6.854-13.788h-5.303v28.229h4.61
					l-0.163-13.666c-0.041-2.488-0.082-5.466-0.286-7.832l0.123-0.123c0.53,1.672,2.081,5.222,3.59,8.363l6.323,13.257H155.787z"/>
				<rect x="163.907" y="84.311" fill-rule="evenodd" clip-rule="evenodd" fill="#00205B" width="4.813" height="28.229"/>
				<path fill-rule="evenodd" clip-rule="evenodd" fill="#00205B" d="M196.342,84.311h-4.895l-5.181,15.747
					c-1.387,4.202-1.713,5.915-1.713,5.915h-0.083c0,0-0.326-2.081-1.468-5.67l-5.099-15.991h-5.14l9.505,28.352h4.365
					L196.342,84.311z"/>
				<polygon fill-rule="evenodd" clip-rule="evenodd" fill="#00205B" points="216.314,112.598 216.314,108.601 205.016,108.601 
					205.016,99.791 213.623,99.791 213.623,95.916 204.935,95.916 204.935,88.206 215.295,88.206 215.907,84.372 200.244,84.372 
					200.244,112.598 				"/>
				<path fill-rule="evenodd" clip-rule="evenodd" fill="#00205B" d="M241.891,112.54l-4.161-6.771
					c-1.468-2.366-3.345-5.099-4.365-5.629c4.406,0,7.017-3.712,7.017-7.751c0-4.406-2.856-8.077-9.179-8.077h-8.607v28.229h4.61
					v-12.197c0.897,0.041,1.305,0.326,1.835,0.856c1.55,1.55,2.855,3.508,4.813,6.976l2.448,4.364H241.891z M235.487,92.429
					c0,1.468-0.49,2.652-1.265,3.427c-0.856,0.856-2.162,1.183-4.61,1.183h-2.406v-8.934h2.57
					C233.936,88.105,235.487,89.573,235.487,92.429z"/>
				<path fill-rule="evenodd" clip-rule="evenodd" fill="#00205B" d="M264.855,104.14c0-4.242-2.855-6.853-6.934-8.036l-3.345-0.979
					c-2.774-0.816-3.753-1.713-3.753-3.467c0-2.325,1.836-3.834,4.609-3.834c2.244,0,4.039,0.612,6.649,2.162l2.121-3.304
					c-2.488-1.754-5.71-2.693-8.933-2.693c-5.67,0-9.586,3.386-9.586,8.362c0,1.632,0.408,2.978,1.183,4.12
					c1.06,1.591,2.896,2.652,5.466,3.386l3.019,0.856c2.896,0.816,4.201,2.121,4.201,4.201c0,2.814-2.08,4.487-5.548,4.487
					c-2.855,0-5.099-0.856-7.627-2.325l-1.795,3.589c2.774,1.672,6.038,2.529,9.26,2.529
					C261.062,113.195,264.855,108.831,264.855,104.14z"/>
				<rect x="270.99" y="84.375" fill-rule="evenodd" clip-rule="evenodd" fill="#00205B" width="4.813" height="28.228"/>
				<polygon fill-rule="evenodd" clip-rule="evenodd" fill="#00205B" points="299.833,84.375 280.293,84.375 280.293,88.291 
					287.432,88.291 287.432,112.603 292.123,112.603 292.123,88.291 299.221,88.291 				"/>
				<path fill-rule="evenodd" clip-rule="evenodd" fill="#00205B" d="M322.6,84.375h-5.466l-4.324,8.933
					c-0.735,1.55-1.551,3.549-1.551,3.549s-0.652-1.835-1.509-3.631l-4.243-8.852h-5.67l8.893,16.807v11.421h4.854v-11.381
					L322.6,84.375z"/>
			</g>
			<g>
				<path fill-rule="evenodd" clip-rule="evenodd" fill="#00205B" d="M126.792,54.431c0-2.935-1.313-5.329-3.668-6.719
					c-1.468-0.888-2.896-1.274-6.796-1.274h-7.105v26.721h4.402V62.964h4.518C122.969,62.964,126.792,59.682,126.792,54.431z
					 M121.888,54.701c0,3.167-1.506,4.71-4.789,4.71h-3.475v-9.383h3.475c1.737,0,2.896,0.463,3.707,1.312
					C121.541,52.114,121.888,53.233,121.888,54.701z"/>
				<path fill-rule="evenodd" clip-rule="evenodd" fill="#00205B" d="M150.431,73.158l-8.533-26.759h-5.135l-8.766,26.759h4.595
					l2.162-7.028h8.649l2.162,7.028H150.431z M142.399,62.424h-6.564c0.617-1.776,3.359-11.584,3.359-11.584h0.039
					C139.426,51.882,142.129,61.844,142.399,62.424z"/>
				<path fill-rule="evenodd" clip-rule="evenodd" fill="#00205B" d="M174.455,59.875c0-4.17-0.927-7.375-2.896-9.653
					c-2.51-2.857-5.483-3.785-10.503-3.785h-5.561v26.721h6.604c4.98,0,7.297-0.888,9.537-3.746
					C173.451,67.096,174.455,63.93,174.455,59.875z M169.512,60.338c0,6.062-1.892,9.19-6.603,9.19h-2.935V49.952h2.819
					c2.394,0,3.784,0.618,5.02,2.317C169.203,54.16,169.512,56.902,169.512,60.338z"/>
				<polygon fill-rule="evenodd" clip-rule="evenodd" fill="#00205B" points="196.751,73.158 196.751,69.374 186.056,69.374 
					186.056,61.034 194.203,61.034 194.203,57.365 185.979,57.365 185.979,50.067 195.786,50.067 196.365,46.438 181.538,46.438 
					181.538,73.158 				"/>
				<path fill-rule="evenodd" clip-rule="evenodd" fill="#00205B" d="M221.129,73.158l-3.938-6.41
					c-1.39-2.239-3.166-4.826-4.132-5.329c4.17,0,6.642-3.514,6.642-7.336c0-4.17-2.704-7.646-8.688-7.646h-8.147v26.721h4.363
					V61.613c0.85,0.039,1.236,0.309,1.738,0.811c1.467,1.467,2.703,3.32,4.557,6.603l2.316,4.131H221.129z M215.067,54.122
					c0,1.39-0.463,2.51-1.197,3.243c-0.811,0.811-2.046,1.12-4.363,1.12h-2.278v-8.456h2.433
					C213.601,50.029,215.067,51.419,215.067,54.122z"/>
				<path fill-rule="evenodd" clip-rule="evenodd" fill="#00205B" d="M245.234,65.59c0-2.664-1.235-5.676-5.675-6.757
					c2.973-0.85,4.594-2.973,4.594-5.831c0-2.24-1.004-3.977-3.011-5.251c-1.661-1.042-3.051-1.313-7.028-1.313h-7.066v26.721h7.762
					C241.566,73.158,245.234,70.88,245.234,65.59z M240.331,65.165c0,2.394-1.467,4.325-4.865,4.325h-4.016v-8.456h3.9
					c1.274,0,1.815,0.039,2.471,0.231C239.289,61.69,240.331,63.273,240.331,65.165z M239.481,53.697
					c0,0.695-0.231,1.814-1.042,2.664c-0.85,0.888-1.661,1.004-3.283,1.004h-3.784v-7.298h3.437c1.273,0,1.969,0.116,2.509,0.309
					C238.593,50.84,239.481,52.152,239.481,53.697z"/>
				<path fill-rule="evenodd" clip-rule="evenodd" fill="#00205B" d="M273.477,59.836c0-7.8-3.63-13.785-11.159-13.785
					c-6.68,0-11.159,4.942-11.159,13.747c0,7.915,3.746,13.785,11.352,13.785C269.461,73.583,273.477,68.177,273.477,59.836z
					 M268.418,60.107c0,7.182-2.046,10.116-6.023,10.116c-4.556,0-6.294-3.822-6.294-10.695c0-6.41,1.699-10.04,6.178-10.04
					C267.067,49.488,268.418,53.581,268.418,60.107z"/>
				<path fill-rule="evenodd" clip-rule="evenodd" fill="#00205B" d="M298.817,73.158l-3.938-6.41
					c-1.391-2.239-3.167-4.826-4.132-5.329c4.17,0,6.642-3.514,6.642-7.336c0-4.17-2.703-7.646-8.688-7.646h-8.147v26.721h4.363
					V61.613c0.85,0.039,1.236,0.309,1.738,0.811c1.467,1.467,2.703,3.32,4.556,6.603l2.317,4.131H298.817z M292.755,54.122
					c0,1.39-0.463,2.51-1.197,3.243c-0.811,0.811-2.047,1.12-4.363,1.12h-2.278v-8.456h2.433
					C291.288,50.029,292.755,51.419,292.755,54.122z"/>
				<path fill-rule="evenodd" clip-rule="evenodd" fill="#00205B" d="M322.845,73.158V46.438h-4.208l0.077,12.202
					c0,2.433,0.271,6.255,0.386,7.607l-0.115,0.116c-0.348-1.235-1.506-4.402-2.742-6.874l-6.487-13.051h-5.02v26.721h4.363
					l-0.154-12.936c-0.038-2.355-0.077-5.174-0.27-7.414l0.115-0.116c0.502,1.583,1.969,4.942,3.398,7.916l5.985,12.549H322.845z"/>
			</g>
		</g>
	</g>
</g>
</svg>
